<svg width="409" height="250" viewBox="0 0 409 250" fill="none" xmlns="http://www.w3.org/2000/svg">
<path d="M105.04 184.332C105.694 182.284 106.894 178.443 108.639 172.811C110.384 166.923 112.457 159.754 114.857 151.306C117.256 142.857 119.983 133.513 123.037 123.272C126.091 113.031 129.145 102.663 132.2 92.1659C135.254 81.6692 138.308 71.3006 141.362 61.0599C144.416 50.8193 147.143 41.4747 149.543 33.0261C151.942 24.5776 154.015 17.4091 155.76 11.5207C157.505 5.63235 158.705 1.79211 159.359 0H207.134V250H177.357V36.8664H176.702C176.048 39.1705 174.739 43.7788 172.776 50.6912C170.812 57.3477 168.304 65.5402 165.249 75.2688C162.413 84.9974 159.25 95.7501 155.76 107.527C152.488 119.304 148.997 131.336 145.289 143.625C141.798 155.658 138.308 167.563 134.817 179.339C131.327 191.116 128.055 201.869 125.001 211.598C122.165 221.326 119.765 229.647 117.802 236.559C115.838 243.216 114.529 247.696 113.875 250H93.914C93.2596 247.696 91.9507 243.216 89.9873 236.559C88.0239 229.647 85.5152 221.326 82.4611 211.598C79.6251 201.869 76.4619 191.116 72.9715 179.339C69.4811 167.563 65.8816 155.53 62.1731 143.241C58.6826 130.952 55.1922 118.92 51.7018 107.143C48.2114 95.3661 44.9391 84.6134 41.885 74.8848C39.049 65.1562 36.6494 56.9636 34.686 50.3072C32.7227 43.3948 31.4138 38.7865 30.7593 36.4823H29.7776V250H0V0H49.4112L103.731 184.332H105.04Z" fill="black"/>
<path d="M360.323 115.207C367.222 116.743 373.61 119.304 379.487 122.888C385.364 126.472 390.475 130.952 394.818 136.329C399.418 141.449 402.867 147.337 405.167 153.994C407.722 160.394 409 167.435 409 175.115C409 186.892 407.084 197.517 403.251 206.989C399.418 216.206 393.924 224.014 386.769 230.415C379.615 236.815 370.799 241.679 360.323 245.008C350.102 248.336 338.348 250 325.061 250H218.891V0H323.911C334.643 0 344.353 1.40809 353.04 4.22426C361.984 6.78442 369.649 10.7527 376.037 16.129C382.426 21.5054 387.281 28.0338 390.602 35.7143C394.18 43.3948 395.968 52.2273 395.968 62.212C395.968 67.8443 395.074 73.4767 393.285 79.1091C391.497 84.4854 388.941 89.4777 385.62 94.086C382.553 98.4383 378.848 102.407 374.504 105.991C370.16 109.319 365.433 112.007 360.323 114.055V115.207ZM253.386 31.49V101.382H319.311C326.21 101.382 332.215 100.486 337.326 98.6943C342.436 96.9022 346.652 94.47 349.974 91.3978C353.551 88.0696 356.107 84.2294 357.64 79.8771C359.429 75.5248 360.323 70.7885 360.323 65.6682C360.323 60.5479 359.429 55.9396 357.64 51.8433C355.851 47.491 353.296 43.9068 349.974 41.0906C346.652 38.0184 342.436 35.7143 337.326 34.1782C332.471 32.3861 326.977 31.49 320.845 31.49H253.386ZM253.386 132.104V218.126H321.611C330.554 218.126 338.22 217.23 344.608 215.438C351.252 213.39 356.618 210.573 360.706 206.989C364.794 203.149 367.733 198.541 369.522 193.164C371.566 187.788 372.588 181.772 372.588 175.115C372.588 168.203 371.31 162.058 368.755 156.682C366.455 151.306 363.006 146.825 358.406 143.241C354.063 139.401 348.697 136.585 342.308 134.793C336.176 133.001 329.149 132.104 321.228 132.104H253.386Z" fill="black"/>
</svg>
